<mxfile host="app.diagrams.net" modified="2024-03-11T10:23:11.330Z" agent="Mozilla/5.0 (Windows NT 10.0; Win64; x64; rv:123.0) Gecko/20100101 Firefox/123.0" etag="sj5uNl07PrY8yfFSB2nV" version="24.0.1" type="device">
  <diagram name="Pagina-1" id="bbmHOdX6LNpJZkMeOSZF">
    <mxGraphModel dx="1434" dy="782" grid="0" gridSize="10" guides="1" tooltips="1" connect="1" arrows="1" fold="1" page="0" pageScale="1" pageWidth="827" pageHeight="1169" math="0" shadow="0">
      <root>
        <mxCell id="0" />
        <mxCell id="1" parent="0" />
        <mxCell id="LXATccmehfoftTE6nhfb-1" value="Server" style="shape=ext;double=1;rounded=1;whiteSpace=wrap;html=1;" parent="1" vertex="1">
          <mxGeometry x="20" y="420" width="120" height="80" as="geometry" />
        </mxCell>
        <mxCell id="LXATccmehfoftTE6nhfb-5" value="" style="html=1;shadow=0;dashed=0;align=center;verticalAlign=middle;shape=mxgraph.arrows2.arrow;dy=0.6;dx=40;direction=south;notch=0;rotation=-90;" parent="1" vertex="1">
          <mxGeometry x="180" y="410" width="70" height="100" as="geometry" />
        </mxCell>
        <mxCell id="LXATccmehfoftTE6nhfb-6" value="&lt;p align=&quot;left&quot; style=&quot;line-height: 30%;&quot;&gt;&lt;br&gt;&lt;/p&gt;" style="rounded=0;whiteSpace=wrap;html=1;align=left;" parent="1" vertex="1">
          <mxGeometry x="290" y="410" width="120" height="120" as="geometry" />
        </mxCell>
        <mxCell id="gTOxGt3QsyA4Zckay-aa-2" value="Gateway" style="text;html=1;align=center;verticalAlign=middle;whiteSpace=wrap;rounded=0;" parent="1" vertex="1">
          <mxGeometry x="290" y="410" width="120" height="30" as="geometry" />
        </mxCell>
        <mxCell id="gTOxGt3QsyA4Zckay-aa-4" value="LoRa" style="text;html=1;align=center;verticalAlign=middle;whiteSpace=wrap;rounded=0;spacing=0;" parent="1" vertex="1">
          <mxGeometry x="290" y="450" width="120" height="80" as="geometry" />
        </mxCell>
        <mxCell id="gTOxGt3QsyA4Zckay-aa-5" value="Radio frequentie" style="rounded=0;whiteSpace=wrap;html=1;" parent="1" vertex="1">
          <mxGeometry x="410" y="410" width="160" height="120" as="geometry" />
        </mxCell>
        <mxCell id="gTOxGt3QsyA4Zckay-aa-6" value="" style="rounded=0;whiteSpace=wrap;html=1;" parent="1" vertex="1">
          <mxGeometry x="570" y="410" width="120" height="120" as="geometry" />
        </mxCell>
        <mxCell id="gTOxGt3QsyA4Zckay-aa-7" value="Raspberry pi" style="text;html=1;align=center;verticalAlign=middle;whiteSpace=wrap;rounded=0;" parent="1" vertex="1">
          <mxGeometry x="570" y="410" width="120" height="30" as="geometry" />
        </mxCell>
        <mxCell id="gTOxGt3QsyA4Zckay-aa-8" value="LoRa" style="text;html=1;align=center;verticalAlign=middle;whiteSpace=wrap;rounded=0;spacing=0;" parent="1" vertex="1">
          <mxGeometry x="570" y="450" width="120" height="80" as="geometry" />
        </mxCell>
        <mxCell id="gTOxGt3QsyA4Zckay-aa-9" value="NET" style="text;html=1;align=center;verticalAlign=middle;whiteSpace=wrap;rounded=0;" parent="1" vertex="1">
          <mxGeometry x="170" y="445" width="60" height="30" as="geometry" />
        </mxCell>
        <mxCell id="gTOxGt3QsyA4Zckay-aa-10" value="Verlichting" style="shape=ext;double=1;rounded=1;whiteSpace=wrap;html=1;" parent="1" vertex="1">
          <mxGeometry x="820" y="420" width="120" height="80" as="geometry" />
        </mxCell>
        <mxCell id="gTOxGt3QsyA4Zckay-aa-11" value="" style="html=1;shadow=0;dashed=0;align=center;verticalAlign=middle;shape=mxgraph.arrows2.arrow;dy=0.6;dx=40;direction=south;notch=0;rotation=-90;" parent="1" vertex="1">
          <mxGeometry x="720" y="410" width="70" height="100" as="geometry" />
        </mxCell>
        <mxCell id="gTOxGt3QsyA4Zckay-aa-12" value="NET" style="text;html=1;align=center;verticalAlign=middle;whiteSpace=wrap;rounded=0;" parent="1" vertex="1">
          <mxGeometry x="710" y="445" width="60" height="30" as="geometry" />
        </mxCell>
        <mxCell id="gTOxGt3QsyA4Zckay-aa-13" value="" style="ellipse;shape=cloud;whiteSpace=wrap;html=1;" parent="1" vertex="1">
          <mxGeometry x="430" y="100" width="120" height="80" as="geometry" />
        </mxCell>
        <mxCell id="gTOxGt3QsyA4Zckay-aa-14" value="Radio frequentie" style="text;html=1;align=center;verticalAlign=middle;whiteSpace=wrap;rounded=0;" parent="1" vertex="1">
          <mxGeometry x="460" y="125" width="60" height="30" as="geometry" />
        </mxCell>
        <mxCell id="gTOxGt3QsyA4Zckay-aa-15" value="" style="endArrow=none;html=1;rounded=0;" parent="1" edge="1">
          <mxGeometry width="50" height="50" relative="1" as="geometry">
            <mxPoint x="530" y="120" as="sourcePoint" />
            <mxPoint x="570" y="100" as="targetPoint" />
          </mxGeometry>
        </mxCell>
        <mxCell id="gTOxGt3QsyA4Zckay-aa-16" value="" style="endArrow=none;html=1;rounded=0;" parent="1" edge="1">
          <mxGeometry width="50" height="50" relative="1" as="geometry">
            <mxPoint x="540" y="160" as="sourcePoint" />
            <mxPoint x="580" y="140" as="targetPoint" />
          </mxGeometry>
        </mxCell>
        <mxCell id="gTOxGt3QsyA4Zckay-aa-17" value="" style="endArrow=none;html=1;rounded=0;" parent="1" edge="1">
          <mxGeometry width="50" height="50" relative="1" as="geometry">
            <mxPoint x="470" y="110" as="sourcePoint" />
            <mxPoint x="440" y="80" as="targetPoint" />
          </mxGeometry>
        </mxCell>
        <mxCell id="gTOxGt3QsyA4Zckay-aa-18" value="" style="endArrow=none;html=1;rounded=0;" parent="1" edge="1">
          <mxGeometry width="50" height="50" relative="1" as="geometry">
            <mxPoint x="400" y="160" as="sourcePoint" />
            <mxPoint x="440" y="140" as="targetPoint" />
          </mxGeometry>
        </mxCell>
        <mxCell id="gTOxGt3QsyA4Zckay-aa-19" value="End Point" style="ellipse;whiteSpace=wrap;html=1;" parent="1" vertex="1">
          <mxGeometry x="570" y="70" width="70" height="50" as="geometry" />
        </mxCell>
        <mxCell id="gTOxGt3QsyA4Zckay-aa-20" value="End Point" style="ellipse;whiteSpace=wrap;html=1;" parent="1" vertex="1">
          <mxGeometry x="570" y="130" width="70" height="50" as="geometry" />
        </mxCell>
        <mxCell id="gTOxGt3QsyA4Zckay-aa-21" value="End Point" style="ellipse;whiteSpace=wrap;html=1;" parent="1" vertex="1">
          <mxGeometry x="379" y="40" width="70" height="50" as="geometry" />
        </mxCell>
        <mxCell id="gTOxGt3QsyA4Zckay-aa-22" value="End Point" style="ellipse;whiteSpace=wrap;html=1;" parent="1" vertex="1">
          <mxGeometry x="330" y="130" width="70" height="50" as="geometry" />
        </mxCell>
        <mxCell id="gTOxGt3QsyA4Zckay-aa-23" value="" style="endArrow=classic;html=1;rounded=0;" parent="1" edge="1">
          <mxGeometry width="50" height="50" relative="1" as="geometry">
            <mxPoint x="640" y="90" as="sourcePoint" />
            <mxPoint x="700" y="90" as="targetPoint" />
          </mxGeometry>
        </mxCell>
        <mxCell id="gTOxGt3QsyA4Zckay-aa-24" value="" style="endArrow=classic;html=1;rounded=0;" parent="1" edge="1">
          <mxGeometry width="50" height="50" relative="1" as="geometry">
            <mxPoint x="640" y="155" as="sourcePoint" />
            <mxPoint x="700" y="120" as="targetPoint" />
          </mxGeometry>
        </mxCell>
        <mxCell id="gTOxGt3QsyA4Zckay-aa-25" value="The things network" style="rounded=1;whiteSpace=wrap;html=1;" parent="1" vertex="1">
          <mxGeometry x="707" y="70" width="120" height="60" as="geometry" />
        </mxCell>
        <mxCell id="gTOxGt3QsyA4Zckay-aa-29" value="" style="endArrow=classic;html=1;rounded=0;entryX=0.2;entryY=0.888;entryDx=0;entryDy=0;entryPerimeter=0;" parent="1" target="gTOxGt3QsyA4Zckay-aa-13" edge="1">
          <mxGeometry relative="1" as="geometry">
            <mxPoint x="414" y="220" as="sourcePoint" />
            <mxPoint x="514" y="220" as="targetPoint" />
          </mxGeometry>
        </mxCell>
        <mxCell id="gTOxGt3QsyA4Zckay-aa-30" value="Data" style="edgeLabel;resizable=0;html=1;;align=center;verticalAlign=middle;" parent="gTOxGt3QsyA4Zckay-aa-29" connectable="0" vertex="1">
          <mxGeometry relative="1" as="geometry" />
        </mxCell>
        <mxCell id="gTOxGt3QsyA4Zckay-aa-31" value="" style="endArrow=classic;html=1;rounded=0;entryX=0.2;entryY=0.888;entryDx=0;entryDy=0;entryPerimeter=0;" parent="1" edge="1">
          <mxGeometry relative="1" as="geometry">
            <mxPoint x="510" y="60" as="sourcePoint" />
            <mxPoint x="490" y="110.5" as="targetPoint" />
          </mxGeometry>
        </mxCell>
        <mxCell id="gTOxGt3QsyA4Zckay-aa-32" value="Data" style="edgeLabel;resizable=0;html=1;;align=center;verticalAlign=middle;" parent="gTOxGt3QsyA4Zckay-aa-31" connectable="0" vertex="1">
          <mxGeometry relative="1" as="geometry" />
        </mxCell>
        <mxCell id="gTOxGt3QsyA4Zckay-aa-33" value="" style="endArrow=classic;html=1;rounded=0;entryX=0.55;entryY=0.95;entryDx=0;entryDy=0;entryPerimeter=0;" parent="1" target="gTOxGt3QsyA4Zckay-aa-13" edge="1">
          <mxGeometry relative="1" as="geometry">
            <mxPoint x="530" y="220" as="sourcePoint" />
            <mxPoint x="540" y="180" as="targetPoint" />
          </mxGeometry>
        </mxCell>
        <mxCell id="gTOxGt3QsyA4Zckay-aa-34" value="Data" style="edgeLabel;resizable=0;html=1;;align=center;verticalAlign=middle;" parent="gTOxGt3QsyA4Zckay-aa-33" connectable="0" vertex="1">
          <mxGeometry relative="1" as="geometry" />
        </mxCell>
        <mxCell id="gTOxGt3QsyA4Zckay-aa-35" value="Sensor" style="ellipse;whiteSpace=wrap;html=1;" parent="1" vertex="1">
          <mxGeometry x="370" y="220" width="70" height="40" as="geometry" />
        </mxCell>
        <mxCell id="gTOxGt3QsyA4Zckay-aa-36" value="Sensor" style="ellipse;whiteSpace=wrap;html=1;" parent="1" vertex="1">
          <mxGeometry x="500" y="220" width="70" height="40" as="geometry" />
        </mxCell>
        <mxCell id="gTOxGt3QsyA4Zckay-aa-37" value="Sensor" style="ellipse;whiteSpace=wrap;html=1;" parent="1" vertex="1">
          <mxGeometry x="480" y="20" width="70" height="40" as="geometry" />
        </mxCell>
        <mxCell id="gTOxGt3QsyA4Zckay-aa-40" value="" style="endArrow=classic;startArrow=classic;html=1;rounded=0;entryX=-0.033;entryY=0.65;entryDx=0;entryDy=0;entryPerimeter=0;" parent="1" target="gTOxGt3QsyA4Zckay-aa-43" edge="1">
          <mxGeometry width="50" height="50" relative="1" as="geometry">
            <mxPoint x="827" y="110" as="sourcePoint" />
            <mxPoint x="890" y="110" as="targetPoint" />
          </mxGeometry>
        </mxCell>
        <mxCell id="gTOxGt3QsyA4Zckay-aa-43" value="MQTT" style="rounded=1;whiteSpace=wrap;html=1;" parent="1" vertex="1">
          <mxGeometry x="890" y="70" width="120" height="60" as="geometry" />
        </mxCell>
        <mxCell id="gTOxGt3QsyA4Zckay-aa-44" value="Server" style="shape=ext;double=1;rounded=1;whiteSpace=wrap;html=1;" parent="1" vertex="1">
          <mxGeometry x="19" y="680" width="120" height="80" as="geometry" />
        </mxCell>
        <mxCell id="gTOxGt3QsyA4Zckay-aa-45" value="" style="html=1;shadow=0;dashed=0;align=center;verticalAlign=middle;shape=mxgraph.arrows2.arrow;dy=0.6;dx=40;direction=south;notch=0;rotation=-90;" parent="1" vertex="1">
          <mxGeometry x="179" y="670" width="70" height="100" as="geometry" />
        </mxCell>
        <mxCell id="gTOxGt3QsyA4Zckay-aa-46" value="&lt;p align=&quot;left&quot; style=&quot;line-height: 30%;&quot;&gt;&lt;br&gt;&lt;/p&gt;" style="rounded=0;whiteSpace=wrap;html=1;align=left;" parent="1" vertex="1">
          <mxGeometry x="289" y="670" width="120" height="120" as="geometry" />
        </mxCell>
        <mxCell id="gTOxGt3QsyA4Zckay-aa-47" value="LTU Rocket" style="text;html=1;align=center;verticalAlign=middle;whiteSpace=wrap;rounded=0;" parent="1" vertex="1">
          <mxGeometry x="289" y="670" width="120" height="30" as="geometry" />
        </mxCell>
        <mxCell id="gTOxGt3QsyA4Zckay-aa-49" value="5Ghz" style="rounded=0;whiteSpace=wrap;html=1;" parent="1" vertex="1">
          <mxGeometry x="409" y="670" width="160" height="120" as="geometry" />
        </mxCell>
        <mxCell id="gTOxGt3QsyA4Zckay-aa-50" value="" style="rounded=0;whiteSpace=wrap;html=1;" parent="1" vertex="1">
          <mxGeometry x="569" y="670" width="120" height="120" as="geometry" />
        </mxCell>
        <mxCell id="gTOxGt3QsyA4Zckay-aa-51" value="LTU Long Range" style="text;html=1;align=center;verticalAlign=middle;whiteSpace=wrap;rounded=0;" parent="1" vertex="1">
          <mxGeometry x="569" y="670" width="120" height="30" as="geometry" />
        </mxCell>
        <mxCell id="gTOxGt3QsyA4Zckay-aa-53" value="NET" style="text;html=1;align=center;verticalAlign=middle;whiteSpace=wrap;rounded=0;" parent="1" vertex="1">
          <mxGeometry x="169" y="705" width="60" height="30" as="geometry" />
        </mxCell>
        <mxCell id="gTOxGt3QsyA4Zckay-aa-54" value="Verlichting" style="shape=ext;double=1;rounded=1;whiteSpace=wrap;html=1;" parent="1" vertex="1">
          <mxGeometry x="819" y="680" width="120" height="80" as="geometry" />
        </mxCell>
        <mxCell id="gTOxGt3QsyA4Zckay-aa-55" value="" style="html=1;shadow=0;dashed=0;align=center;verticalAlign=middle;shape=mxgraph.arrows2.arrow;dy=0.6;dx=40;direction=south;notch=0;rotation=-90;" parent="1" vertex="1">
          <mxGeometry x="719" y="670" width="70" height="100" as="geometry" />
        </mxCell>
        <mxCell id="gTOxGt3QsyA4Zckay-aa-56" value="NET" style="text;html=1;align=center;verticalAlign=middle;whiteSpace=wrap;rounded=0;" parent="1" vertex="1">
          <mxGeometry x="709" y="705" width="60" height="30" as="geometry" />
        </mxCell>
        <mxCell id="gTOxGt3QsyA4Zckay-aa-57" value="UNIFI" style="text;html=1;align=center;verticalAlign=middle;whiteSpace=wrap;rounded=0;" parent="1" vertex="1">
          <mxGeometry x="450" y="620" width="60" height="30" as="geometry" />
        </mxCell>
        <mxCell id="gTOxGt3QsyA4Zckay-aa-58" value="LoRa" style="text;html=1;align=center;verticalAlign=middle;whiteSpace=wrap;rounded=0;" parent="1" vertex="1">
          <mxGeometry x="449" y="350" width="60" height="30" as="geometry" />
        </mxCell>
      </root>
    </mxGraphModel>
  </diagram>
</mxfile>
